<svg xmlns="http://www.w3.org/2000/svg" width="595.3" height="75" viewBox="0 0 595.3 75"><title>Alibaba Cloud logo - Brandlogos.net</title><rect x="40.1" y="32.8" width="40.1" height="9" style="fill:#ed6b1e"/><path d="M314.55,474.5h-26.5l6.4,9.1,19.4,5.9a8.21,8.21,0,0,1,5.8,8h0v29h0a8.37,8.37,0,0,1-5.8,8l-19.3,5.9-6.5,9.1h26.5a20,20,0,0,0,20-20v-35a19.93,19.93,0,0,0-20-20" transform="translate(-214.35 -474.5)" style="fill:#ed6b1e"/><path d="M234.35,474.5h26.5l-6.4,9.1-19.3,5.9a8.21,8.21,0,0,0-5.8,8h0v29h0a8.37,8.37,0,0,0,5.8,8l19.3,5.9,6.4,9.1h-26.5a20.06,20.06,0,0,1-20-20v-35a20.06,20.06,0,0,1,20-20" transform="translate(-214.35 -474.5)" style="fill:#ed6b1e"/><path d="M659.25,526.9a11.9,11.9,0,0,1-23.8,0V498.2a11.76,11.76,0,0,1,11.9-11.7,11.89,11.89,0,0,1,11.9,11.7v.3h9.1v-.4a21,21,0,0,0-42,.1v28.6a21,21,0,0,0,42,0v-.3h-9.1Z" transform="translate(-214.35 -474.5)" style="fill:#ed6b1e"/><path d="M706.45,496a17.93,17.93,0,0,0-18,17v17.6a18,18,0,0,0,36,0V513a17.86,17.86,0,0,0-18-17m8.9,33.5a8.9,8.9,0,1,1-17.8,0V514a8.9,8.9,0,1,1,17.8,0Z" transform="translate(-214.35 -474.5)" style="fill:#ed6b1e"/><rect x="458.5" y="3" width="9.1" height="69" style="fill:#ed6b1e"/><rect x="208.8" y="21.5" width="9.1" height="50.4" style="fill:#ed6b1e"/><rect x="190.7" y="3" width="9.1" height="69" style="fill:#ed6b1e"/><path d="M382.15,477.5h-11.1l-18.3,68.9v.1h9l4.9-18.3,20,.1,4.8,18.2v.1h9l-18.3-69.1Zm2.1,41.7h-15.2l7.6-28.6Z" transform="translate(-214.35 -474.5)" style="fill:#ed6b1e"/><path d="M757.95,530.5a8.9,8.9,0,0,1-17.8,0V496H731v36a15.62,15.62,0,0,0,15.6,15.6,14.26,14.26,0,0,0,4.6-.7,18.61,18.61,0,0,0,2.5-1,14.58,14.58,0,0,0,3.8-2.7l.4-.4v3.7H767V496h-9.1v34.5Z" transform="translate(-214.35 -474.5)" style="fill:#ed6b1e"/><rect x="208.8" y="3" width="9.1" height="9.1" style="fill:#ed6b1e"/><path d="M461.65,496a15.36,15.36,0,0,0-10.9,4.5l-.4.4V477.5h-9.1v69h9.1v-3.7l.4.4a15.36,15.36,0,0,0,10.9,4.5,15.62,15.62,0,0,0,15.6-15.6V511.6a15.56,15.56,0,0,0-15.6-15.6m6.6,17.2v17.1a9,9,0,0,1-18,0V513.2a9,9,0,0,1,18,0" transform="translate(-214.35 -474.5)" style="fill:#ed6b1e"/><path d="M546.05,495.9a15.36,15.36,0,0,0-10.9,4.5l-.4.4V477.5h-9.1v69h9.1v-3.7l.4.4a15.36,15.36,0,0,0,10.9,4.5,15.62,15.62,0,0,0,15.6-15.6V511.5a15.62,15.62,0,0,0-15.6-15.6m6.6,17.3v17.1a9,9,0,1,1-18,0V513.2a9,9,0,0,1,18,0" transform="translate(-214.35 -474.5)" style="fill:#ed6b1e"/><path d="M800.55,477.5v23.3l-.4-.4a15.36,15.36,0,0,0-10.9-4.5,15.62,15.62,0,0,0-15.6,15.6V532a15.53,15.53,0,0,0,15.6,15.5,15.36,15.36,0,0,0,10.9-4.5l.4-.4v3.7h9.1V477.5Zm-.1,35.7v17.1a9,9,0,0,1-18,0V513.2a9,9,0,0,1,18,0" transform="translate(-214.35 -474.5)" style="fill:#ed6b1e"/><path d="M519.15,513.1a14.05,14.05,0,0,0-.2-1.8v-.2a19.42,19.42,0,0,0-3.1-7.6,17.66,17.66,0,0,0-13.5-7.5h-1a18.09,18.09,0,0,0-17.8,14.8v.1h8.9v-.1a8.88,8.88,0,0,1,8.7-7.2,9,9,0,0,1,6.2,2.5,8.82,8.82,0,0,1,2.7,6.1v4.2h-12.9a15.6,15.6,0,0,0-3.9,30.7c.1,0,.2,0,.2.1.3.1.6.1.9.2s.7.1,1.1.2h.2a17.72,17.72,0,0,0,2.4.1,16.33,16.33,0,0,0,11.6-4.5l.4-.4v3.7h9.1V513.1ZM499,523.2h11v6.4a10.16,10.16,0,0,1-8.2,9.9,7.14,7.14,0,0,1-2,.2,8.69,8.69,0,0,1-4.6-1.3c-.4-.2-.8-.5-1.2-.7a9.27,9.27,0,0,1-1.4-1.4l-.1-.1a7.88,7.88,0,0,1-1.7-4.9,8.22,8.22,0,0,1,8.2-8.1" transform="translate(-214.35 -474.5)" style="fill:#ed6b1e"/><path d="M603.65,513.1a14.05,14.05,0,0,0-.2-1.8v-.2a19.42,19.42,0,0,0-3.1-7.6,17.66,17.66,0,0,0-13.5-7.5h-1A18.09,18.09,0,0,0,568,510.8v.1h8.9v-.1a8.88,8.88,0,0,1,8.7-7.2,9,9,0,0,1,6.2,2.5,8.82,8.82,0,0,1,2.7,6.1v4.2h-12.9a15.6,15.6,0,0,0-3.9,30.7c.1,0,.2,0,.2.1.3.1.6.1.9.2s.7.1,1.1.2h.2a17.72,17.72,0,0,0,2.4.1,16.33,16.33,0,0,0,11.6-4.5l.4-.4v3.7h9.1V513.1Zm-20.2,10.1h11v6.4a10.16,10.16,0,0,1-8.2,9.9,7.14,7.14,0,0,1-2,.2,8.69,8.69,0,0,1-4.6-1.3c-.4-.2-.8-.5-1.2-.7a9.27,9.27,0,0,1-1.4-1.4l-.1-.1a7.88,7.88,0,0,1-1.7-4.9,8.28,8.28,0,0,1,8.2-8.1" transform="translate(-214.35 -474.5)" style="fill:#ed6b1e"/></svg>