<svg xmlns="http://www.w3.org/2000/svg"  viewBox="0 0 100 100" width="200px" height="200px"><path fill="#4e6e91" d="M65,60.349V33.401c0-8.286-6.717-15-15-15s-15,6.714-15,15v26.947L65,60.349L65,60.349z"/><path fill="#1f212b" d="M66,54.349h-2V33.401c0-7.72-6.28-14-14-14s-14,6.28-14,14v20.947h-2V33.401c0-8.822,7.178-16,16-16	s16,7.178,16,16V54.349z"/><path fill="#fefdef" d="M42.732,42.491c2.015-1.158,4.577-2,6.391-2.226C49.674,39.152,50,37.806,50,36.354 c0-3.823-2.238-6.923-5-6.923s-5,3.1-5,6.923C40,39.04,41.117,41.343,42.732,42.491z"/><path fill="#fefdef" d="M57.257,42.5C58.878,41.355,60,39.046,60,36.354c0-3.823-2.238-6.923-5-6.923s-5,3.1-5,6.923 c0,1.454,0.326,2.798,0.878,3.912C52.689,40.494,55.242,41.345,57.257,42.5z"/><path fill="#1f212b" d="M42.732,42.99c-0.102,0-0.203-0.031-0.29-0.093c-1.815-1.289-2.943-3.797-2.943-6.544 c0-4.093,2.467-7.423,5.5-7.423s5.5,3.33,5.5,7.423c0,1.477-0.321,2.906-0.929,4.133c-0.075,0.15-0.22,0.254-0.387,0.274 c-1.862,0.231-4.355,1.101-6.203,2.163C42.904,42.968,42.818,42.99,42.732,42.99z M45,29.931c-2.481,0-4.5,2.881-4.5,6.423 c0,2.298,0.864,4.386,2.274,5.54c1.826-0.997,4.166-1.81,6.012-2.087c0.467-1.036,0.713-2.225,0.713-3.453 C49.5,32.812,47.481,29.931,45,29.931z"/><path fill="#1f212b" d="M57.257,43c-0.085,0-0.171-0.021-0.249-0.066c-1.86-1.066-4.349-1.939-6.192-2.172 c-0.167-0.021-0.311-0.124-0.385-0.273c-0.609-1.228-0.931-2.657-0.931-4.135c0-4.093,2.467-7.423,5.5-7.423s5.5,3.33,5.5,7.423 c0,2.757-1.132,5.269-2.955,6.555C57.459,42.97,57.358,43,57.257,43z M51.215,39.808c1.831,0.279,4.165,1.096,6,2.097 c1.417-1.152,2.285-3.245,2.285-5.551c0-3.542-2.019-6.423-4.5-6.423s-4.5,2.881-4.5,6.423 C50.5,37.583,50.747,38.771,51.215,39.808z"/><path fill="#1f212b" d="M45.5,35c-0.828,0-1.5,1.008-1.5,2.25s0.672,2.25,1.5,2.25s1.5-1.008,1.5-2.25S46.328,35,45.5,35z"/><path fill="#1f212b" d="M54.5,35c-0.828,0-1.5,1.008-1.5,2.25s0.672,2.25,1.5,2.25s1.5-1.008,1.5-2.25S55.328,35,54.5,35z"/><path fill="#1f212b" d="M57.562,26.729c-0.131,0-0.262-0.051-0.36-0.153c-1.335-1.387-3.027-2.354-4.893-2.797	c-0.269-0.063-0.435-0.333-0.371-0.602c0.064-0.27,0.334-0.435,0.602-0.371c2.053,0.487,3.914,1.552,5.382,3.076	c0.191,0.198,0.186,0.516-0.014,0.707C57.812,26.683,57.687,26.729,57.562,26.729z"/><path fill="#b3b2c3" d="M79.03,54H64.069C59.74,56.842,54.565,58.5,49,58.5S38.26,56.842,33.931,54H20.97	c-2.554,0-4.453,2.36-3.908,4.855l5.25,24C22.714,84.691,24.34,86,26.22,86H45c2.761,0,5-2.239,5-5c0,2.761,2.239,5,5,5h18.78	c1.88,0,3.506-1.309,3.908-3.145l5.25-24C83.484,56.36,81.584,54,79.03,54z"/><path fill="#1f212b" d="M73.78,87H55c-2.084,0-3.924-1.068-5-2.687C48.924,85.932,47.084,87,45,87H26.22	c-2.332,0-4.386-1.653-4.885-3.932l-5.25-24c-0.325-1.486,0.036-3.018,0.989-4.203C18.028,53.68,19.448,53,20.97,53h13.961	c0.195,0,0.386,0.057,0.549,0.164C39.801,56.001,44.822,57.5,50,57.5s10.199-1.499,14.52-4.336C64.683,53.057,64.874,53,65.069,53	H79.03c1.521,0,2.941,0.68,3.896,1.865c0.954,1.186,1.314,2.717,0.989,4.203l-5.25,24C78.167,85.347,76.112,87,73.78,87z M50,80	c0.552,0,1,0.447,1,1c0,2.206,1.794,4,4,4h18.78c1.399,0,2.632-0.992,2.931-2.359l5.25-24c0.195-0.892-0.021-1.811-0.593-2.521	S79.943,55,79.03,55H65.365c-4.59,2.945-9.896,4.5-15.365,4.5S39.225,57.945,34.635,55H20.97c-0.913,0-1.765,0.408-2.337,1.119	s-0.789,1.63-0.593,2.521l5.25,24c0.298,1.368,1.53,2.36,2.93,2.36H45c2.206,0,4-1.794,4-4C49,80.447,49.448,80,50,80z"/><path fill="#f15b6c" d="M66.698,75H33.302c-0.469,0-0.875-0.326-0.976-0.783l-1.556-7C30.632,66.592,31.107,66,31.747,66	h36.507c0.64,0,1.115,0.592,0.976,1.217l-1.556,7C67.572,74.674,67.167,75,66.698,75z"/><path fill="#1f212b" d="M66.698,75.5H33.302c-0.708,0-1.311-0.483-1.464-1.175l-1.556-7	c-0.099-0.446,0.008-0.907,0.294-1.264s0.713-0.562,1.17-0.562h36.507c0.457,0,0.884,0.205,1.17,0.562s0.394,0.817,0.294,1.264	l-1.556,7C68.009,75.017,67.406,75.5,66.698,75.5z M31.747,66.5c-0.152,0-0.294,0.068-0.39,0.188	c-0.096,0.118-0.131,0.272-0.098,0.421l1.556,7c0.051,0.23,0.251,0.392,0.488,0.392h33.396c0.236,0,0.437-0.161,0.488-0.392l1.556-7	c0.033-0.148-0.002-0.303-0.098-0.421c-0.095-0.119-0.237-0.188-0.39-0.188H31.747z"/><path fill="#fef6aa" d="M59.5,44.5c0,2.486-5.507,4.5-9.5,4.5s-9.5-2.014-9.5-4.5C42,42.052,47.466,40,50,40	S57.996,42.083,59.5,44.5z"/><path fill="#1f212b" d="M50,49.5c-3.981,0-10-1.994-10-5c0-0.092,0.025-0.183,0.074-0.261C41.648,41.669,47.291,39.5,50,39.5	c2.691,0,8.326,2.167,9.924,4.735C59.974,44.315,60,44.406,60,44.5C60,47.506,53.981,49.5,50,49.5z M41.008,44.635	C41.229,46.609,46.239,48.5,50,48.5c3.759,0,8.767-1.889,8.992-3.862C57.504,42.486,52.369,40.5,50,40.5	C47.61,40.5,42.51,42.419,41.008,44.635z"/><path fill="#1f212b" d="M72.909,83H65c-0.276,0-0.5-0.224-0.5-0.5S64.724,82,65,82h7.909c0.505,0,0.95-0.357,1.058-0.851	l4.777-21.836c0.096-0.441-0.093-0.759-0.214-0.908C78.381,58.22,78.114,58,77.686,58H67.408c-0.745,0-1.517,0.209-2.235,0.604	C60.55,61.152,55.303,62.5,50,62.5c-5.3,0-10.547-1.348-15.174-3.897C34.111,58.208,33.339,58,32.593,58H24	c-0.276,0-0.5-0.224-0.5-0.5S23.724,57,24,57h8.593c0.915,0,1.854,0.252,2.716,0.728C39.788,60.195,44.868,61.5,50,61.5	c5.135,0,10.215-1.305,14.691-3.772C65.556,57.251,66.496,57,67.408,57h10.278c0.868,0,1.389,0.487,1.622,0.777	c0.233,0.288,0.598,0.9,0.412,1.749l-4.777,21.836C74.736,82.312,73.881,83,72.909,83z M62,83h-3c-0.276,0-0.5-0.224-0.5-0.5	S58.724,82,59,82h3c0.276,0,0.5,0.224,0.5,0.5S62.276,83,62,83z M57,83h-2c-0.276,0-0.5-0.224-0.5-0.5S54.724,82,55,82h2	c0.276,0,0.5,0.224,0.5,0.5S57.276,83,57,83z M45,83H27.091c-0.972,0-1.827-0.688-2.034-1.638l-2.9-13.256	c-0.059-0.27,0.112-0.536,0.381-0.595c0.268-0.06,0.537,0.111,0.595,0.382l2.9,13.256C26.141,81.643,26.586,82,27.091,82H45	c0.276,0,0.5,0.224,0.5,0.5S45.276,83,45,83z M22.207,66.5c-0.23,0-0.437-0.159-0.488-0.394l-0.438-2	c-0.059-0.27,0.112-0.536,0.381-0.595c0.27-0.061,0.537,0.111,0.595,0.382l0.438,2c0.059,0.27-0.112,0.536-0.381,0.595	C22.278,66.496,22.242,66.5,22.207,66.5z M21.332,62.5c-0.23,0-0.437-0.159-0.488-0.394l-0.219-1	c-0.059-0.27,0.112-0.536,0.381-0.595c0.271-0.062,0.537,0.111,0.595,0.382l0.219,1c0.059,0.27-0.112,0.536-0.381,0.595	C21.403,62.496,21.367,62.5,21.332,62.5z"/><g><path fill="#fff" d="M47.487,70.992l1.498,0.002l-0.782-1.341L46.556,72.5l-1.15-0.008l2.118-3.668 c0.153-0.264,0.484-0.333,0.685-0.332c0.169,0.001,0.45-0.014,0.666,0.319L51,72.492h-1.155l-0.282-0.496l-0.336-0.001 C48.51,71.992,47.848,71.611,47.487,70.992L47.487,70.992z M58,71.501V68.5l-1,0.001v3.616c0,0.099,0.036,0.195,0.108,0.268 c0.07,0.074,0.165,0.115,0.269,0.115L60,72.508l1-1.008L58,71.501L58,71.501z M43.978,71.299c0,0,1.016-0.298,1.022-1.321 c0.005-0.843-0.508-1.469-1.369-1.478H41v4h1v-3h1.28c0.38-0.003,0.72,0.137,0.72,0.495c0,0.357-0.33,0.508-0.673,0.508 l-1.325-0.002l1.696,2.007L45,72.499L43.978,71.299z M38,68.5h-2c-1.06,0-2,0.951-2,2.055c0,1.104,0.94,1.945,2,1.945l2-0.001 c1.06,0,2-0.895,2-1.999C40,69.395,39.06,68.5,38,68.5z M38,71.5h-2c-0.456-0.004-0.922-0.531-0.922-0.987 c0-0.562,0.532-1.022,0.922-1.013h2c0.199,0.003,0.909,0.305,0.906,0.994C38.903,71.246,38.254,71.498,38,71.5z M56,71.492 L52.911,71.5c-0.562-0.007-0.901-0.545-0.911-1.004c-0.014-0.497,0.361-1.017,0.916-1.024L55,69.5l1-1.008h-3.079 c-1.061,0-1.921,0.896-1.921,2c0,1.105,0.86,2,1.921,2L55,72.508L56,71.492z M65.991,70.026c0,0-2.981,0.017-4.003,0.023 c0.095-0.462,0.8-0.541,0.8-0.541H65l1-1h-3.199c-1.061,0-1.921,0.896-1.921,2c0,1.105,0.86,2,1.921,2H65l1-1h-3.212 c-0.245,0.028-0.704-0.177-0.814-0.608l3.024,0.036L65.991,70.026z"/></g></svg>